<?xml version="1.0" encoding="utf-8"?>
<!-- Generator: Adobe Illustrator 26.1.0, SVG Export Plug-In . SVG Version: 6.00 Build 0)  -->
<svg version="1.1" id="Layer_1" xmlns="http://www.w3.org/2000/svg" xmlns:xlink="http://www.w3.org/1999/xlink" x="0px" y="0px"
	 viewBox="0 0 194.6 28" style="enable-background:new 0 0 194.6 28;" xml:space="preserve">
<style type="text/css">
	.st0{fill:#FFFFFF;}
</style>
<path class="st0" d="M17.5,18.5c0.1,2.9-1.9,4.7-4.5,5.5c-2.3,0.6-4.7,0.6-7,0.5c-0.9,0-1.5-0.6-1.4-1.5c0-0.8,0.6-1.4,1.5-1.4
	c1.6,0,3.1,0,4.7-0.2c1.8-0.3,3-1.2,3-3.3c-0.1-4.2,0-8.5,0-12.7c0-0.7,0.2-1.4,0.9-1.7c0.8-0.3,2-0.2,2.5,0.4
	c0.3,0.3,0.3,0.7,0.3,1.1v7h0C17.5,14.2,17.5,16.4,17.5,18.5z"/>
<path class="st0" d="M43.7,14.5c0-0.9-0.2-1.7-0.7-2.4c-1.1-1.6-2.8-2.1-4.5-2.3c-1.8-0.3-3.7-0.1-5.2-0.1c-1.4,0-2.5,0-3.7,0
	c-1.5,0-3.1,0.2-4.5,0.7c-1.5,0.6-2.8,2-2.8,3.8c0,2,0,4,0,6c0,1.3,0.7,2.2,1.7,2.9c1.3,1,2.9,1.2,4.5,1.4c2.3,0.2,4.5,0,6.8,0.1
	c1.6,0,3.3-0.1,4.8-0.6c2.2-0.7,3.5-2,3.5-4.5C43.7,17.8,43.7,16.2,43.7,14.5z M39.9,19.7c0,0.8-0.6,1.3-1.5,1.6
	c-0.7,0.2-1.5,0.3-2.2,0.3c-1.9,0-3.8,0-5.6,0c-0.9,0-1.9-0.1-2.8-0.3C26.5,21,26,20.4,26,19.2c0-1.3,0-2.7,0-4
	c-0.1-1.7,0.7-2,1.9-2.3c1.7-0.4,3.4-0.2,5.2-0.2c1.4,0.1,2.9-0.1,4.4,0.1c0.5,0.1,1,0.2,1.5,0.4c0.6,0.3,1,0.7,1,1.4
	C39.9,16.3,39.9,18,39.9,19.7z"/>
<path class="st0" d="M69.4,11.1c0,2.9,0.1,5.8,0,8.7c-0.1,2.3-1.3,3.5-3.5,4.2c-1.5,0.5-3.1,0.6-4.7,0.6c-2.2,0-4.4,0.1-6.7-0.1
	c-1.5-0.1-3.1-0.4-4.4-1.3c-1.3-0.8-1.9-2-1.9-3.5c0-1.4,0-2.8,0-4.3c0-1.4,0-2.9,0-4.3c0-1,0.5-1.6,1.6-1.6c0.4,0,0.8,0,1.2,0.1
	c0.6,0.2,0.9,0.6,0.9,1.3c0,2.7,0,5.4,0,8.1c0,1.1,0.3,1.8,1.8,2.2c0.9,0.2,1.9,0.3,2.9,0.3c1.8,0,3.5,0,5.3,0c1,0,2-0.1,2.9-0.6
	c0.5-0.3,0.8-0.8,0.8-1.4c0-2.7,0-5.5,0-8.2c0-0.7,0.2-1.4,1-1.6c0.8-0.3,1.7-0.3,2.4,0.3C69.3,10.2,69.4,10.7,69.4,11.1z"/>
<path class="st0" d="M77.8,22.8c0,0.7-0.1,1.5-0.9,1.7c-0.8,0.2-1.7,0.3-2.4-0.3c-0.3-0.3-0.4-0.7-0.4-1.2c0-6.1,0-12.3,0-18.4
	c0-1.4,1.2-1.8,2.2-1.6c1.2,0.2,1.5,0.6,1.5,1.9c0,3,0,6,0,9h0C77.8,16.8,77.8,19.8,77.8,22.8z"/>
<path class="st0" d="M104.2,13.7c0-1.3-0.5-2.3-1.7-3c-1.2-0.7-2.6-1-4-1c-3.4,0-6.8,0-10.2,0c-0.7,0-1.5,0.1-2.2,0.2
	c-2.1,0.5-3.8,1.6-3.7,4.4c0.1,1.8,0,3.6,0,5.4c0,1.8,0.8,3.1,2.4,3.8c1.3,0.6,2.7,0.8,4.1,0.9c1.9,0.1,3.9,0.1,5.8,0
	c0.8-0.1,1.3-0.7,1.3-1.4c0-0.8-0.5-1.3-1.3-1.4c-0.3,0-0.6,0-0.9,0c-1.7,0-3.4,0.1-5.1-0.1c-2.3-0.3-2.7-0.7-2.6-2.7
	c0-0.4,0.1-0.5,0.6-0.5c2.7,0,5.3,0,8,0c0,0,0,0,0,0c2.7,0,5.3,0,8,0c1.2,0,1.6-0.5,1.6-1.6C104.3,15.7,104.3,14.7,104.2,13.7z
	 M99.5,15.7h-6.1v0c-2.2,0-4.5,0-6.7,0c-0.4,0-0.5-0.1-0.5-0.5c0-1.9,0.5-2.5,2.5-2.6c3.2-0.1,6.4,0,9.6,0c0.4,0,0.8,0.1,1.1,0.2
	c0.9,0.3,1.2,0.7,1.2,1.8C100.5,15.7,100.5,15.7,99.5,15.7z"/>
<path class="st0" d="M133.2,9.1c-0.2-2.2-1.3-3.7-3.3-4.5c-1.6-0.7-3.4-0.9-5.1-1c-2.4-0.1-4.9,0-7.3,0c-2.5,0-5.1,0-7.6,0
	c-1,0-1.5,0.5-1.5,1.5c0,1.2,0,2.5,0,3.7c0,4.8,0,9.5,0,14.3c0,1,0.5,1.5,1.4,1.5c0.3,0,0.6,0,0.9,0c1-0.1,1.5-0.6,1.5-1.6
	c0-1.5,0-3,0-4.5c0-0.5,0.1-0.6,0.6-0.6c3.9,0,7.7,0,11.6,0c1.8,0,3.6-0.2,5.4-0.9c1.9-0.7,3.1-2,3.5-3.9
	C133.4,11.8,133.3,10.4,133.2,9.1z M129.4,12.1c0,1.1-0.6,1.7-1.5,2.1c-1,0.5-2.1,0.7-3.2,0.7c-4,0-7.9,0-11.9,0
	c-0.5,0-0.6-0.1-0.6-0.6c0-2.4,0-4.8,0-7.3c0-0.4,0.1-0.5,0.5-0.5c2.1,0,4.2,0,6.4,0v0c1.9,0,3.7,0,5.6,0c1,0,2.1,0.2,3,0.5
	c1.1,0.4,1.8,1.3,1.8,2.4C129.4,10.4,129.4,11.3,129.4,12.1z"/>
<path class="st0" d="M158.3,14.5c0-1-0.3-1.9-0.9-2.7c-1.1-1.3-2.7-1.8-4.3-2c-1.8-0.3-3.7-0.1-5.2-0.1c-1.4,0-2.6,0-3.7,0
	c-1.3,0-2.5,0.1-3.7,0.5c-2.4,0.7-3.7,2.2-3.6,4.9c0,1.5,0,3,0,4.5c0,1.6,0.7,2.9,2.1,3.7c1.3,0.8,2.8,1,4.2,1.2
	c2.2,0.2,4.4,0,6.7,0.1c1.7,0,3.3-0.1,5-0.6c2.4-0.8,3.5-2.1,3.6-4.3C158.3,18,158.3,16.2,158.3,14.5z M152.7,21.3
	c-1.4,0.3-2.9,0.2-4.3,0.2c-0.3,0-0.6,0-0.9,0c-1.7-0.1-3.5,0.2-5.2-0.3c-1.3-0.3-1.9-1-1.8-2.1c0.1-1.5,0-3,0-4.5
	c0-0.8,0.4-1.3,1.1-1.6c0.9-0.4,1.9-0.5,2.9-0.5c2,0,3.9,0,5.9,0c1,0,2,0.1,3,0.5c0.7,0.3,1.1,0.8,1.1,1.5c0,1.5,0,3.1,0,4.6
	C154.6,20.3,154,20.9,152.7,21.3z"/>
<path class="st0" d="M174.8,11.1c0,0.8-0.5,1.4-1.4,1.5c-0.9,0.1-1.9,0-2.8,0c-0.9,0-1.9,0.1-2.8,0.4c-1,0.3-1.3,0.8-1.3,1.8
	c0,2.7,0,5.4,0,8c0,1.2-0.5,1.7-1.6,1.7c-0.2,0-0.4,0-0.6,0c-1.1-0.1-1.5-0.6-1.5-1.6c0-1.4,0-2.9,0-4.3c0-1.3,0-2.6,0-3.8
	c-0.1-2.6,1.3-3.9,3.5-4.6c1.1-0.3,2.2-0.5,3.3-0.5c1.2,0,2.5,0,3.7,0C174.2,9.7,174.7,10.2,174.8,11.1z"/>
<path class="st0" d="M190.1,11.9c-0.3,0.5-0.8,0.7-1.4,0.7c-1.4,0-2.9,0-4.3,0c-0.4,0-0.5,0.1-0.5,0.5c0,3.3,0,6.5,0,9.8
	c0,1.1-0.5,1.6-1.6,1.7c-0.2,0-0.4,0-0.7,0c-1-0.1-1.4-0.5-1.4-1.5c0-1.6,0-3.3,0-4.9h0c0-1.7,0-3.3,0-5c0-0.4-0.1-0.5-0.6-0.5
	c-0.6,0-1.2,0-1.7-0.3c-0.6-0.4-0.5-1.1-0.4-1.6c0.1-0.5,0.6-0.8,1.1-0.8c0.2,0,0.4,0,0.6,0c1,0,1,0,1-1.1c0-0.5,0-1.1,0-1.6
	c0-0.7,0.5-1.2,1.2-1.2c0.3,0,0.5,0,0.8,0c1.1,0,1.8,0.6,1.7,1.7c0,0.6,0,1.1,0,1.7c0,0.4,0.1,0.5,0.5,0.5c1.5,0,3.1,0.1,4.6,0
	C189.9,9.7,190.8,10.9,190.1,11.9z"/>
<path class="st0" d="M133.2,9.1c-0.2-2.2-1.3-3.7-3.3-4.5c-1.6-0.7-3.4-0.9-5.1-1c-2.4-0.1-4.9,0-7.3,0c-2.5,0-5.1,0-7.6,0
	c-1,0-1.5,0.5-1.5,1.5c0,1.2,0,2.5,0,3.7c0,4.8,0,9.5,0,14.3c0,1,0.5,1.5,1.4,1.5c0.3,0,0.6,0,0.9,0c1-0.1,1.5-0.6,1.5-1.6
	c0-1.5,0-3,0-4.5c0-0.5,0.1-0.6,0.6-0.6c3.9,0,7.7,0,11.6,0c1.8,0,3.6-0.2,5.4-0.9c1.9-0.7,3.1-2,3.5-3.9
	C133.4,11.8,133.3,10.4,133.2,9.1z M129.4,12.1c0,1.1-0.6,1.7-1.5,2.1c-1,0.5-2.1,0.7-3.2,0.7c-4,0-7.9,0-11.9,0
	c-0.5,0-0.6-0.1-0.6-0.6c0-2.4,0-4.8,0-7.3c0-0.4,0.1-0.5,0.5-0.5c2.1,0,4.2,0,6.4,0v0c1.9,0,3.7,0,5.6,0c1,0,2.1,0.2,3,0.5
	c1.1,0.4,1.8,1.3,1.8,2.4C129.4,10.4,129.4,11.3,129.4,12.1z"/>
<path class="st0" d="M104.2,13.7c0-1.3-0.5-2.3-1.7-3c-1.2-0.7-2.6-1-4-1c-3.4,0-6.8,0-10.2,0c-0.7,0-1.5,0.1-2.2,0.2
	c-2.1,0.5-3.8,1.6-3.7,4.4c0.1,1.8,0,3.6,0,5.4c0,1.8,0.8,3.1,2.4,3.8c1.3,0.6,2.7,0.8,4.1,0.9c1.9,0.1,3.9,0.1,5.8,0
	c0.8-0.1,1.3-0.7,1.3-1.4c0-0.8-0.5-1.3-1.3-1.4c-0.3,0-0.6,0-0.9,0c-1.7,0-3.4,0.1-5.1-0.1c-2.3-0.3-2.7-0.7-2.6-2.7
	c0-0.4,0.1-0.5,0.6-0.5c2.7,0,5.3,0,8,0c0,0,0,0,0,0c2.7,0,5.3,0,8,0c1.2,0,1.6-0.5,1.6-1.6C104.3,15.7,104.3,14.7,104.2,13.7z
	 M99.5,15.7h-6.1v0c-2.2,0-4.5,0-6.7,0c-0.4,0-0.5-0.1-0.5-0.5c0-1.9,0.5-2.5,2.5-2.6c3.2-0.1,6.4,0,9.6,0c0.4,0,0.8,0.1,1.1,0.2
	c0.9,0.3,1.2,0.7,1.2,1.8C100.5,15.7,100.5,15.7,99.5,15.7z"/>
<path class="st0" d="M158.3,14.5c0-1-0.3-1.9-0.9-2.7c-1.1-1.3-2.7-1.8-4.3-2c-1.8-0.3-3.7-0.1-5.2-0.1c-1.4,0-2.6,0-3.7,0
	c-1.3,0-2.5,0.1-3.7,0.5c-2.4,0.7-3.7,2.2-3.6,4.9c0,1.5,0,3,0,4.5c0,1.6,0.7,2.9,2.1,3.7c1.3,0.8,2.8,1,4.2,1.2
	c2.2,0.2,4.4,0,6.7,0.1c1.7,0,3.3-0.1,5-0.6c2.4-0.8,3.5-2.1,3.6-4.3C158.3,18,158.3,16.2,158.3,14.5z M152.7,21.3
	c-1.4,0.3-2.9,0.2-4.3,0.2c-0.3,0-0.6,0-0.9,0c-1.7-0.1-3.5,0.2-5.2-0.3c-1.3-0.3-1.9-1-1.8-2.1c0.1-1.5,0-3,0-4.5
	c0-0.8,0.4-1.3,1.1-1.6c0.9-0.4,1.9-0.5,2.9-0.5c2,0,3.9,0,5.9,0c1,0,2,0.1,3,0.5c0.7,0.3,1.1,0.8,1.1,1.5c0,1.5,0,3.1,0,4.6
	C154.6,20.3,154,20.9,152.7,21.3z"/>
<path class="st0" d="M43.7,14.5c0-0.9-0.2-1.7-0.7-2.4c-1.1-1.6-2.8-2.1-4.5-2.3c-1.8-0.3-3.7-0.1-5.2-0.1c-1.4,0-2.5,0-3.7,0
	c-1.5,0-3.1,0.2-4.5,0.7c-1.5,0.6-2.8,2-2.8,3.8c0,2,0,4,0,6c0,1.3,0.7,2.2,1.7,2.9c1.3,1,2.9,1.2,4.5,1.4c2.3,0.2,4.5,0,6.8,0.1
	c1.6,0,3.3-0.1,4.8-0.6c2.2-0.7,3.5-2,3.5-4.5C43.7,17.8,43.7,16.2,43.7,14.5z M39.9,19.7c0,0.8-0.6,1.3-1.5,1.6
	c-0.7,0.2-1.5,0.3-2.2,0.3c-1.9,0-3.8,0-5.6,0c-0.9,0-1.9-0.1-2.8-0.3C26.5,21,26,20.4,26,19.2c0-1.3,0-2.7,0-4
	c-0.1-1.7,0.7-2,1.9-2.3c1.7-0.4,3.4-0.2,5.2-0.2c1.4,0.1,2.9-0.1,4.4,0.1c0.5,0.1,1,0.2,1.5,0.4c0.6,0.3,1,0.7,1,1.4
	C39.9,16.3,39.9,18,39.9,19.7z"/>
<path class="st0" d="M69.4,19.7c-0.1,2.3-1.3,3.5-3.5,4.2c-1.5,0.5-3.1,0.6-4.7,0.6c-2.2,0-4.4,0.1-6.7-0.1
	c-1.5-0.1-3.1-0.4-4.4-1.3c-1.3-0.8-1.9-2-1.9-3.5c0-1.4,0-2.8,0-4.3c0-1.4,0-2.9,0-4.3c0-1,0.5-1.6,1.6-1.6c0.4,0,0.8,0,1.2,0.1
	c0.6,0.2,0.9,0.6,0.9,1.3c0,2.7,0,5.4,0,8.1c0,1.1,0.3,1.8,1.8,2.2c0.9,0.2,1.9,0.3,2.9,0.3c1.8,0,3.5,0,5.3,0c1,0,2-0.1,2.9-0.6
	c0.5-0.3,0.8-0.8,0.8-1.4c0-2.7,0-5.5,0-8.2c0-0.7,0.2-1.4,1-1.6c0.8-0.3,1.7-0.3,2.4,0.3c0.3,0.2,0.4,0.7,0.4,1.1
	C69.4,14,69.5,16.9,69.4,19.7z"/>
<path class="st0" d="M17.5,18.5c0.1,2.9-1.9,4.7-4.5,5.5c-2.3,0.6-4.7,0.6-7,0.5c-0.9,0-1.5-0.6-1.4-1.5c0-0.8,0.6-1.4,1.5-1.4
	c1.6,0,3.1,0,4.7-0.2c1.8-0.3,3-1.2,3-3.3c-0.1-4.2,0-8.5,0-12.7c0-0.7,0.2-1.4,0.9-1.7c0.8-0.3,2-0.2,2.5,0.4
	c0.3,0.3,0.3,0.7,0.3,1.1v7h0C17.5,14.2,17.5,16.4,17.5,18.5z"/>
<path class="st0" d="M190.1,11.9c-0.3,0.5-0.8,0.7-1.4,0.7c-1.4,0-2.9,0-4.3,0c-0.4,0-0.5,0.1-0.5,0.5c0,3.3,0,6.5,0,9.8
	c0,1.1-0.5,1.6-1.6,1.7c-0.2,0-0.4,0-0.7,0c-1-0.1-1.4-0.5-1.4-1.5c0-1.6,0-3.3,0-4.9h0c0-1.7,0-3.3,0-5c0-0.4-0.1-0.5-0.6-0.5
	c-0.6,0-1.2,0-1.7-0.3c-0.6-0.4-0.5-1.1-0.4-1.6c0.1-0.5,0.6-0.8,1.1-0.8c0.2,0,0.4,0,0.6,0c1,0,1,0,1-1.1c0-0.5,0-1.1,0-1.6
	c0-0.7,0.5-1.2,1.2-1.2c0.3,0,0.5,0,0.8,0c1.1,0,1.8,0.6,1.7,1.7c0,0.6,0,1.1,0,1.7c0,0.4,0.1,0.5,0.5,0.5c1.5,0,3.1,0.1,4.6,0
	C189.9,9.7,190.8,10.9,190.1,11.9z"/>
<path class="st0" d="M77.8,22.8c0,0.7-0.1,1.5-0.9,1.7c-0.8,0.2-1.7,0.3-2.4-0.3c-0.3-0.3-0.4-0.7-0.4-1.2c0-6.1,0-12.3,0-18.4
	c0-1.4,1.2-1.8,2.2-1.6c1.2,0.2,1.5,0.6,1.5,1.9c0,3,0,6,0,9h0C77.8,16.8,77.8,19.8,77.8,22.8z"/>
<path class="st0" d="M174.8,11.1c0,0.8-0.5,1.4-1.4,1.5c-0.9,0.1-1.9,0-2.8,0c-0.9,0-1.9,0.1-2.8,0.4c-1,0.3-1.3,0.8-1.3,1.8
	c0,2.7,0,5.4,0,8c0,1.2-0.5,1.7-1.6,1.7c-0.2,0-0.4,0-0.6,0c-1.1-0.1-1.5-0.6-1.5-1.6c0-1.4,0-2.9,0-4.3c0-1.3,0-2.6,0-3.8
	c-0.1-2.6,1.3-3.9,3.5-4.6c1.1-0.3,2.2-0.5,3.3-0.5c1.2,0,2.5,0,3.7,0C174.2,9.7,174.7,10.2,174.8,11.1z"/>
</svg>
